<mxfile host="app.diagrams.net" modified="2023-09-12T01:42:22.089Z" agent="Mozilla/5.0 (Windows NT 10.0; Win64; x64) AppleWebKit/537.36 (KHTML, like Gecko) Chrome/116.0.0.0 Safari/537.36" etag="bbq5lofU3yWCTReYbwV4" version="21.7.4" type="github">
  <diagram name="Page-1" id="Gqz0cX4XqqDU5Z1U6MZ_">
    <mxGraphModel dx="880" dy="478" grid="1" gridSize="10" guides="1" tooltips="1" connect="1" arrows="1" fold="1" page="1" pageScale="1" pageWidth="850" pageHeight="1100" math="0" shadow="0">
      <root>
        <mxCell id="0" />
        <mxCell id="1" parent="0" />
        <mxCell id="BQ1JNLCyNZEcFDmxIsNE-1" value="" style="swimlane;startSize=0;" vertex="1" parent="1">
          <mxGeometry x="320" y="170" width="290" height="470" as="geometry">
            <mxRectangle x="320" y="170" width="50" height="40" as="alternateBounds" />
          </mxGeometry>
        </mxCell>
        <mxCell id="BQ1JNLCyNZEcFDmxIsNE-2" value="Balap Karung" style="text;html=1;strokeColor=none;fillColor=none;align=center;verticalAlign=middle;whiteSpace=wrap;rounded=0;fontSize=20;" vertex="1" parent="BQ1JNLCyNZEcFDmxIsNE-1">
          <mxGeometry x="80" y="10" width="130" height="30" as="geometry" />
        </mxCell>
        <mxCell id="BQ1JNLCyNZEcFDmxIsNE-7" value="" style="ellipse;whiteSpace=wrap;html=1;" vertex="1" parent="BQ1JNLCyNZEcFDmxIsNE-1">
          <mxGeometry x="70" y="70" width="150" height="80" as="geometry" />
        </mxCell>
        <mxCell id="BQ1JNLCyNZEcFDmxIsNE-11" value="" style="endArrow=none;html=1;rounded=0;" edge="1" parent="BQ1JNLCyNZEcFDmxIsNE-1">
          <mxGeometry width="50" height="50" relative="1" as="geometry">
            <mxPoint x="-40" y="220" as="sourcePoint" />
            <mxPoint x="80" y="130" as="targetPoint" />
          </mxGeometry>
        </mxCell>
        <mxCell id="BQ1JNLCyNZEcFDmxIsNE-12" value="" style="endArrow=none;html=1;rounded=0;" edge="1" parent="BQ1JNLCyNZEcFDmxIsNE-1">
          <mxGeometry width="50" height="50" relative="1" as="geometry">
            <mxPoint x="180" y="260" as="sourcePoint" />
            <mxPoint x="320" y="220" as="targetPoint" />
          </mxGeometry>
        </mxCell>
        <mxCell id="BQ1JNLCyNZEcFDmxIsNE-3" value="Actor" style="shape=umlActor;verticalLabelPosition=bottom;verticalAlign=top;html=1;outlineConnect=0;" vertex="1" parent="1">
          <mxGeometry x="240" y="340" width="30" height="60" as="geometry" />
        </mxCell>
        <mxCell id="BQ1JNLCyNZEcFDmxIsNE-5" style="edgeStyle=orthogonalEdgeStyle;rounded=0;orthogonalLoop=1;jettySize=auto;html=1;exitX=0.5;exitY=0.5;exitDx=0;exitDy=0;exitPerimeter=0;" edge="1" parent="1">
          <mxGeometry relative="1" as="geometry">
            <mxPoint x="720" y="373.53999999999996" as="sourcePoint" />
            <mxPoint x="720" y="387.6821356237309" as="targetPoint" />
          </mxGeometry>
        </mxCell>
        <mxCell id="BQ1JNLCyNZEcFDmxIsNE-6" value="Actor" style="shape=umlActor;verticalLabelPosition=bottom;verticalAlign=top;html=1;outlineConnect=0;" vertex="1" parent="1">
          <mxGeometry x="650" y="340" width="30" height="60" as="geometry" />
        </mxCell>
      </root>
    </mxGraphModel>
  </diagram>
</mxfile>
